<?xml version="1.0" encoding="UTF-8" standalone="no"?><!DOCTYPE svg PUBLIC "-//W3C//DTD SVG 1.1//EN" "http://www.w3.org/Graphics/SVG/1.1/DTD/svg11.dtd"><svg width="100%" height="100%" viewBox="0 0 550 160" version="1.1" xmlns="http://www.w3.org/2000/svg" xmlns:xlink="http://www.w3.org/1999/xlink" xml:space="preserve" style="fill-rule:evenodd;clip-rule:evenodd;stroke-linejoin:round;stroke-miterlimit:1.41421;"><rect id="horizontal-english-blue" x="0" y="0" width="550" height="160" style="fill:none;"/><path d="M523.844,101.829c0.625,-2.449 1.585,-6.241 6.193,-6.241c4.8,0 5.328,4.033 5.616,6.241l-11.809,0Zm16.417,7.919c-1.68,2.16 -3.455,4.416 -7.92,4.416c-7.584,0 -8.401,-6.768 -8.64,-8.592l18.911,0c-0.047,-2.688 -0.094,-7.247 -3.503,-10.703c-2.976,-2.977 -6.816,-3.313 -8.928,-3.313c-8.689,0 -13.296,5.857 -13.296,13.056c0,7.536 4.656,13.632 13.488,13.632c8.447,0 10.416,-5.04 11.472,-7.728l-1.584,-0.768Zm-50.889,7.68l2.352,0l6.48,-14.304l6.481,14.304l2.302,0l9.265,-24.767l-5.136,0l-4.223,12.24l-0.721,2.303c-0.527,-1.296 -0.575,-1.536 -1.056,-2.688l-4.896,-11.855l-2.112,0l-6.384,14.495c-0.336,-1.2 -0.432,-1.488 -0.768,-2.592l-4.032,-11.903l-6.672,0l9.12,24.767Zm-15.729,-5.184c-1.248,0.816 -2.785,1.776 -5.04,1.776c-3.217,0 -4.416,-2.256 -4.416,-4.368c0,-3.12 2.496,-4.608 5.328,-4.608c1.631,0 2.88,0.432 4.128,0.912l0,6.288Zm6.191,-9.839c0,-2.257 -0.048,-5.521 -2.448,-7.969c-1.392,-1.439 -4.079,-2.832 -8.256,-2.832c-7.296,0 -9.216,4.225 -10.272,6.576l1.632,0.817c0.96,-1.296 2.688,-3.649 6.768,-3.649c1.824,0 4.56,0.624 5.712,3.216c0.528,1.2 0.624,2.496 0.673,3.744c-1.92,-0.575 -3.456,-1.055 -5.809,-1.055c-5.712,0 -10.368,3.167 -10.368,8.831c0,4.416 3.168,7.872 8.16,7.872c4.561,0 6.96,-2.4 8.017,-3.504l0,2.784l6.191,0l0,-14.831Zm-37.228,-9.744l-3.888,0l0,3.84l3.888,0l0,13.583c0,2.16 0.24,4.32 2.016,6.048c1.872,1.871 4.416,2.016 5.568,2.016c3.168,0 4.896,-1.104 6.336,-1.968l-0.768,-1.536c-0.768,0.24 -1.44,0.48 -2.447,0.48c-0.481,0 -2.401,0 -3.553,-2.16c-0.481,-0.816 -0.768,-1.824 -0.768,-3.888l0,-12.575l5.616,0l0,-3.84l-5.616,0l0,-6.672l-6.384,0l0,6.672Zm-15.902,0l-6.432,0l0,24.575l6.432,0l0,-19.056c1.105,-0.719 2.544,-1.679 4.897,-1.679c1.775,0 3.023,0.576 4.223,1.152l0,-5.568c-0.576,-0.096 -1.2,-0.144 -1.824,-0.144c-4.368,0 -6.336,2.544 -7.296,3.792l0,-3.072Zm-29.241,9.168c0.624,-2.449 1.584,-6.241 6.192,-6.241c4.8,0 5.328,4.033 5.616,6.241l-11.808,0Zm16.416,7.919c-1.68,2.16 -3.456,4.416 -7.92,4.416c-7.584,0 -8.399,-6.768 -8.641,-8.592l18.913,0c-0.047,-2.688 -0.096,-7.247 -3.503,-10.703c-2.977,-2.977 -6.817,-3.313 -8.929,-3.313c-8.689,0 -13.296,5.857 -13.296,13.056c0,7.536 4.656,13.632 13.488,13.632c8.448,0 10.416,-5.04 11.472,-7.728l-1.584,-0.768Zm-44.587,-10.944c0,-0.048 1.536,-3.216 5.232,-3.216c2.448,0 4.033,1.392 4.993,3.361c0.96,1.92 1.103,4.127 1.103,5.711c0,8.064 -3.744,9.744 -6.24,9.744c-2.735,0 -4.176,-1.728 -5.088,-2.832l0,-12.768Zm-6.432,18.432l6.432,0l0,-2.543c0.816,1.007 2.977,3.647 7.151,3.647c4.801,0 10.897,-3.744 10.897,-13.632c0,-7.631 -3.888,-13.055 -10.464,-13.055c-4.656,0 -6.624,2.544 -7.584,3.792l0,-12.097l-6.432,0l0,33.888Zm-15.457,-11.952l-9.935,0l4.896,-10.991l5.039,10.991Zm-21.262,11.952l5.951,0l3.36,-7.488l14.016,0l3.36,7.488l7.296,0l-15.552,-33.888l-2.352,0l-16.079,33.888Zm-17.328,-33.888l-4.369,0l0,33.888l4.369,0l0,-33.888Zm-13.958,21.6c0,7.824 -3.408,10.656 -7.152,10.656c-2.448,0 -4.992,-1.392 -6.192,-4.608c-0.384,-0.912 -0.96,-2.976 -0.96,-6.144c0,-5.136 1.872,-10.367 7.2,-10.367c4.943,0 7.104,4.943 7.104,10.463Zm4.656,-0.288c0,-7.488 -4.416,-12.864 -11.568,-12.864c-6.528,0 -12.047,4.224 -12.047,13.632c0,2.256 0.288,7.008 3.935,10.176c2.689,2.257 5.712,2.64 7.68,2.64c5.328,0 8.16,-2.64 9.36,-4.175c1.632,-2.113 2.64,-5.281 2.64,-9.409Zm-32.966,6.241c-1.104,0.911 -3.071,2.543 -5.856,2.543c-4.704,0 -6.671,-4.56 -6.671,-9.216c0,-5.519 2.544,-9.311 6.479,-9.311c1.199,0 2.448,0.383 3.552,1.103c1.392,0.912 2.016,1.969 2.496,2.784l0,12.097Zm0,-18.097l0,3.168c-1.008,-1.439 -2.928,-4.176 -7.247,-4.176c-5.137,0 -9.841,4.369 -9.841,12.768c0,7.728 4.128,11.952 9.553,11.952c4.752,0 6.767,-2.736 7.535,-3.744l0,1.392c0,3.456 0,5.712 -1.729,7.68c-1.295,1.536 -3.31,2.208 -5.327,2.208c-2.256,0 -4.607,-0.864 -6.191,-2.304c-1.105,-1.008 -1.536,-1.92 -1.921,-2.736l-1.392,0.48c1.441,6.864 7.201,7.632 9.792,7.632c4.128,0 6.912,-1.537 8.544,-3.168c2.592,-2.639 2.592,-6 2.592,-9.648l0,-21.504l-4.368,0Zm-20.816,5.809c-0.145,-1.105 -0.481,-3.408 -2.977,-5.137c-1.775,-1.248 -4.128,-1.68 -6.048,-1.68c-5.519,0 -8.88,3.168 -8.88,7.249c0,4.703 4.225,6.047 6.672,6.816c2.641,0.815 3.889,1.199 4.849,1.679c0.672,0.336 2.447,1.296 2.447,3.6c0,2.447 -2.159,4.08 -5.472,4.08c-2.448,0 -4.799,-0.864 -6.383,-2.256c-1.105,-0.961 -1.68,-1.968 -2.113,-2.687c-0.336,0.143 -0.912,0.287 -1.296,0.431c0.241,1.153 0.672,3.648 3.216,5.569c1.92,1.391 4.32,1.919 6.721,1.919c2.639,0 5.136,-0.528 7.103,-2.112c1.68,-1.344 2.689,-3.264 2.689,-5.568c0,-5.184 -4.944,-6.624 -7.393,-7.344c-0.336,-0.096 -2.399,-0.719 -2.544,-0.767c-2.496,-0.817 -4.128,-1.776 -4.128,-3.792c0,-2.16 2.065,-3.744 5.233,-3.744c4.559,0 6.239,2.784 7.055,4.128c0.336,-0.096 0.913,-0.288 1.249,-0.384Zm-23.515,-5.809l-7.441,17.04l-6.912,-17.04l-4.847,0l9.504,22.128c-3.216,7.296 -5.233,9.553 -9.504,10.848l0,1.296c6.191,0.288 9.408,-3.408 12.336,-10.08l10.656,-24.192l-3.792,0Zm-25.905,2.784l5.04,0l0,-2.784l-5.04,0l0,-2.351c0,-2.113 0,-3.216 0.527,-4.08c0.48,-0.817 1.488,-1.536 3.024,-1.536c1.153,0 1.968,0.335 2.64,0.624c0.192,-0.289 0.576,-0.72 0.769,-1.008c-0.529,-0.576 -1.825,-2.113 -4.8,-2.113c-2.017,0 -3.456,0.72 -4.321,1.344c-2.16,1.633 -2.208,3.889 -2.208,6.097l0,3.023l-3.456,0l0,2.784l3.456,0l0,21.648l4.369,0l0,-21.648Zm-15.98,-9.935c0,1.535 1.2,2.544 2.496,2.544c0.817,0 2.592,-0.481 2.592,-2.689c0,-1.248 -0.96,-2.496 -2.495,-2.496c-1.536,0 -2.593,1.153 -2.593,2.641Zm4.704,7.103l-4.368,0l0,24.48l4.368,0l0,-24.48Zm-16.67,5.905c0.481,-0.672 2.113,-2.928 5.04,-2.928c1.632,0 2.977,0.672 3.744,1.008l0,-3.937c-0.671,-0.288 -1.295,-0.576 -2.543,-0.576c-3.504,0 -5.424,2.784 -6.241,3.937l0,-3.361l-4.416,0l0,24.432l4.416,0l0,-18.575Zm-25.885,-12.481l5.136,0c4.128,0 5.615,0.96 6.624,2.16c0.768,0.913 1.392,2.353 1.392,3.985c0,2.928 -1.824,5.855 -6.24,7.055c-2.832,0.768 -5.568,0.672 -6.912,0.624l0,-13.824Zm0,15.649c2.784,0.143 3.072,0.143 4.08,0.143c9.936,0 13.872,-4.655 13.872,-10.08c0,-4.319 -2.496,-6.575 -4.657,-7.536c-1.919,-0.863 -4.127,-1.008 -7.343,-1.008l-10.608,0l0,33.888l4.656,0l0,-15.407Z" style="fill:#242f60;fill-rule:nonzero;"/><path d="M543.101,43.984l-7.441,17.04l-6.912,-17.04l-4.848,0l9.504,22.128c-3.216,7.296 -5.232,9.552 -9.504,10.849l0,1.294c6.192,0.29 9.409,-3.408 12.336,-10.08l10.656,-24.191l-3.791,0Zm-26.544,2.784l5.136,0l0,-2.784l-5.136,0l0,-6.48l-4.368,0l0,6.48l-3.36,0l0,2.784l3.36,0l0,15.216c0,2.928 0.192,4.896 2.16,6.288c0.719,0.48 2.112,1.151 3.984,1.151c2.831,0 4.368,-1.343 5.279,-2.111c-0.191,-0.336 -0.479,-0.816 -0.672,-1.152c-0.815,0.385 -1.679,0.816 -2.927,0.816c-3.456,0 -3.456,-3.072 -3.456,-6.191l0,-14.017Zm-15.816,-9.936c0,1.537 1.2,2.545 2.496,2.545c0.817,0 2.592,-0.481 2.592,-2.689c0,-1.248 -0.96,-2.496 -2.496,-2.496c-1.536,0 -2.592,1.151 -2.592,2.64Zm4.704,7.104l-4.368,0l0,24.48l4.368,0l0,-24.48Zm-9.344,5.857c-0.145,-1.105 -0.481,-3.409 -2.977,-5.137c-1.775,-1.248 -4.128,-1.68 -6.048,-1.68c-5.519,0 -8.88,3.168 -8.88,7.248c0,4.703 4.224,6.048 6.672,6.817c2.64,0.815 3.888,1.199 4.848,1.679c0.672,0.336 2.448,1.296 2.448,3.6c0,2.448 -2.16,4.08 -5.471,4.08c-2.449,0 -4.8,-0.864 -6.384,-2.256c-1.105,-0.96 -1.681,-1.969 -2.113,-2.687c-0.336,0.143 -0.912,0.287 -1.296,0.431c0.241,1.153 0.672,3.648 3.216,5.569c1.92,1.39 4.321,1.92 6.72,1.92c2.641,0 5.136,-0.53 7.104,-2.114c1.68,-1.343 2.688,-3.263 2.688,-5.567c0,-5.185 -4.943,-6.624 -7.392,-7.344c-0.336,-0.097 -2.4,-0.72 -2.543,-0.768c-2.497,-0.816 -4.129,-1.776 -4.129,-3.791c0,-2.161 2.064,-3.745 5.232,-3.745c4.56,0 6.24,2.784 7.057,4.127c0.335,-0.095 0.912,-0.287 1.248,-0.382Zm-29.535,0.046c0.48,-0.671 2.112,-2.927 5.04,-2.927c1.632,0 2.976,0.672 3.745,1.008l0,-3.936c-0.673,-0.288 -1.297,-0.576 -2.544,-0.576c-3.505,0 -5.425,2.784 -6.241,3.935l0,-3.359l-4.416,0l0,24.432l4.416,0l0,-18.577Zm-27.671,3.745c0.671,-5.616 4.559,-7.584 7.487,-7.584c2.4,0 6.721,1.44 7.056,7.584l-14.543,0Zm18.815,2.64c0.048,-1.728 0.192,-6.96 -3.6,-10.465c-1.92,-1.727 -4.511,-2.783 -7.631,-2.783c-6.577,0 -12.193,4.848 -12.193,13.344c0,8.736 5.76,13.103 12.24,13.103c8.4,0 10.272,-6.095 10.752,-7.823c-0.335,-0.096 -0.864,-0.336 -1.2,-0.479c-0.864,1.343 -3.311,4.991 -8.496,4.991c-0.72,0 -4.176,0 -6.624,-3.168c-1.872,-2.496 -2.015,-5.328 -2.112,-6.72l18.864,0Zm-27.987,-12.24l-6.961,16.32c-0.384,0.864 -0.432,1.153 -0.527,1.632c-0.193,-0.815 -0.433,-1.44 -0.481,-1.584l-6.672,-16.368l-4.752,0l10.704,24.721l1.488,0l10.8,-24.721l-3.599,0Zm-27.365,-7.152c0,1.537 1.201,2.545 2.496,2.545c0.816,0 2.592,-0.481 2.592,-2.689c0,-1.248 -0.96,-2.496 -2.496,-2.496c-1.536,0 -2.592,1.151 -2.592,2.64Zm4.705,7.104l-4.369,0l0,24.48l4.369,0l0,-24.48Zm-10.339,7.296c0,-2.256 -0.049,-4.561 -2.065,-6.432c-0.48,-0.384 -2.064,-1.824 -5.616,-1.824c-5.088,0 -7.392,3.12 -8.352,4.416l0,-3.408l-4.32,0l0,24.432l4.32,0l0,-18.192c1.68,-2.832 4.224,-4.08 6.577,-4.08c1.439,0 4.079,0.576 4.8,3.216c0.335,1.296 0.335,2.544 0.335,5.185l0,13.871l4.321,0l0,-17.184Zm-26.785,-16.752l-4.608,0l0,26.4c-2.16,2.448 -6,5.28 -10.416,5.28c-3.216,0 -5.808,-1.489 -6.96,-3.312c-0.864,-1.344 -1.2,-3.216 -1.2,-6.864l0,-21.504l-4.608,0l0,23.568c0,3.552 0.577,6 2.592,8.064c1.824,1.92 4.896,3.265 8.928,3.265c4.512,0 8.256,-1.441 11.664,-6l0,5.039l4.608,0l0,-33.936Zm-54.239,28.943c-1.248,0.817 -2.784,1.778 -5.04,1.778c-3.216,0 -4.416,-2.257 -4.416,-4.369c0,-3.119 2.496,-4.608 5.328,-4.608c1.632,0 2.88,0.432 4.128,0.912l0,6.287Zm6.193,-9.839c0,-2.256 -0.049,-5.52 -2.449,-7.968c-1.392,-1.441 -4.08,-2.831 -8.256,-2.831c-7.295,0 -9.216,4.222 -10.272,6.575l1.632,0.815c0.96,-1.295 2.688,-3.647 6.768,-3.647c1.825,0 4.56,0.624 5.712,3.216c0.529,1.2 0.624,2.496 0.672,3.744c-1.92,-0.576 -3.456,-1.056 -5.807,-1.056c-5.712,0 -10.369,3.168 -10.369,8.832c0,4.415 3.169,7.872 8.161,7.872c4.559,0 6.96,-2.4 8.015,-3.504l0,2.784l6.193,0l0,-14.832Zm-43.724,-0.577c0.624,-2.447 1.584,-6.239 6.192,-6.239c4.8,0 5.328,4.032 5.617,6.239l-11.809,0Zm16.416,7.92c-1.68,2.161 -3.456,4.416 -7.92,4.416c-7.584,0 -8.4,-6.767 -8.639,-8.591l18.912,0c-0.048,-2.688 -0.097,-7.248 -3.504,-10.704c-2.977,-2.976 -6.817,-3.312 -8.929,-3.312c-8.688,0 -13.296,5.855 -13.296,13.057c0,7.535 4.656,13.63 13.488,13.63c8.449,0 10.416,-5.039 11.472,-7.727l-1.584,-0.769Zm-46.842,1.057c0.145,1.152 0.433,2.928 2.065,4.607c1.055,1.057 3.504,2.832 8.303,2.832c7.056,0 10.464,-3.983 10.464,-8.255c0,-2.064 -0.767,-3.888 -1.92,-5.088c-1.391,-1.44 -3.263,-1.968 -4.607,-2.304c-0.913,-0.239 -1.824,-0.433 -2.736,-0.624c-2.161,-0.576 -4.369,-1.199 -4.369,-3.408c0,-1.584 1.392,-3.264 4.897,-3.264c4.847,0 6.048,2.496 6.479,3.359l1.68,-0.479c-0.191,-0.96 -0.479,-2.399 -1.92,-3.888c-1.536,-1.584 -4.031,-2.687 -7.296,-2.687c-7.151,0 -10.319,4.319 -10.319,8.256c0,4.463 3.695,5.855 4.655,6.191c1.105,0.432 2.208,0.672 3.313,0.912c3.12,0.672 4.703,1.296 5.423,2.88c0.144,0.433 0.241,0.815 0.241,1.2c0,0.145 0,2.401 -2.689,3.264c-0.815,0.288 -1.632,0.336 -2.399,0.336c-2.689,0 -4.992,-0.912 -6.337,-2.256c-0.672,-0.672 -0.96,-1.344 -1.247,-1.968l-1.681,0.384Zm-3.639,-10.176c0,-2.064 -0.144,-4.512 -1.967,-6.431c-1.296,-1.345 -3.361,-2.256 -5.905,-2.256c-4.656,0 -6.767,2.495 -8.015,3.935l0,-3.217l-6.385,0l0,24.577l6.385,0l0,-18.287c1.103,-1.249 2.687,-3.025 5.327,-3.025c2.305,0 3.505,1.487 3.889,2.88c0.24,0.816 0.24,1.68 0.24,2.496l0,15.936l6.431,0l0,-16.608Zm-33.762,11.615c-1.248,0.817 -2.784,1.778 -5.04,1.778c-3.217,0 -4.416,-2.257 -4.416,-4.369c0,-3.119 2.496,-4.608 5.328,-4.608c1.632,0 2.88,0.432 4.128,0.912l0,6.287Zm6.191,-9.839c0,-2.256 -0.048,-5.52 -2.448,-7.968c-1.392,-1.441 -4.079,-2.831 -8.256,-2.831c-7.296,0 -9.216,4.222 -10.271,6.575l1.631,0.815c0.96,-1.295 2.688,-3.647 6.768,-3.647c1.824,0 4.561,0.624 5.712,3.216c0.528,1.2 0.624,2.496 0.673,3.744c-1.92,-0.576 -3.456,-1.056 -5.809,-1.056c-5.712,0 -10.368,3.168 -10.368,8.832c0,4.415 3.168,7.872 8.16,7.872c4.561,0 6.96,-2.4 8.017,-3.504l0,2.784l6.191,0l0,-14.832Zm-48.921,15.024l2.353,0l6.479,-14.304l6.481,14.304l2.304,0l9.263,-24.769l-5.136,0l-4.223,12.241l-0.721,2.304c-0.527,-1.296 -0.576,-1.536 -1.056,-2.688l-4.896,-11.857l-2.111,0l-6.384,14.497c-0.337,-1.2 -0.433,-1.488 -0.769,-2.592l-4.032,-11.905l-6.671,0l9.119,24.769Zm-35.318,-9.312c0.288,1.776 0.721,4.512 3.073,6.816c3.216,3.216 7.92,3.311 9.648,3.311c1.44,0 7.056,0 10.704,-3.791c1.728,-1.824 2.976,-4.511 2.976,-7.44c0,-2.64 -1.056,-4.991 -2.688,-6.528c-2.208,-2.207 -5.713,-3.024 -8.064,-3.552c-3.649,-0.72 -6.24,-1.248 -7.248,-3.743c-0.24,-0.625 -0.288,-1.248 -0.288,-1.633c0,-3.504 3.407,-5.232 7.248,-5.232c2.928,0 5.28,0.96 6.768,2.4c0.864,0.864 1.247,1.68 1.68,2.736l1.968,-0.528c-0.144,-1.151 -0.384,-3.504 -2.448,-5.616c-2.928,-3.024 -7.584,-3.073 -8.977,-3.073c-10.991,0 -13.055,6.817 -13.055,10.561c0,7.775 7.152,9.217 10.992,9.984c4.127,0.817 7.056,1.871 7.056,5.52c0,2.881 -2.352,5.808 -7.152,5.808c-2.881,0 -5.712,-0.864 -7.777,-2.88c-1.247,-1.248 -1.871,-2.543 -2.495,-3.791l-1.921,0.671Z" style="fill:#242f60;fill-rule:nonzero;"/><path d="M77.44,113.557c-1.554,-0.625 -3.382,-0.943 -5.443,-0.943c-4.711,0 -9.413,1.615 -11.388,2.391c-0.332,0.155 -0.988,0.4 -0.737,0.305c0,0 -0.17,-0.058 -0.716,-0.297c-1.962,-0.774 -6.683,-2.399 -11.41,-2.399c-2.061,0 -3.888,0.318 -5.443,0.943l0,-24.006c0.907,-0.303 3.382,-1.017 6.425,-1.017c3.968,0 7.732,1.365 10.534,3.689l0.61,0.7l0.61,-0.7c2.802,-2.324 6.566,-3.689 10.534,-3.689c3.042,0 5.517,0.714 6.424,1.017l0,24.006Zm-45.916,-28.471c-1.742,0 -3.153,-1.413 -3.153,-3.155c0,-1.741 1.411,-3.153 3.153,-3.153c1.742,0 3.153,1.412 3.153,3.153c0,1.742 -1.411,3.155 -3.153,3.155Zm65.257,23.454c-1.802,-3.642 -5.347,-9.146 -6.275,-10.283l-0.186,0.422c-0.017,0.075 -1.643,7.134 -2.169,9.983c0.425,-0.214 1.15,-0.63 1.766,-0.982l0.554,-0.318l0.017,0.418c0.196,4.832 -0.668,9.028 -2.569,12.47l-0.035,0.064c-0.35,0.061 -0.72,0.109 -1.089,0.146l-6.176,-4.607l0,-23.004c0,-0.295 -0.114,-0.572 -0.322,-0.779c-0.153,-0.154 -0.362,-0.334 -0.613,-0.5l13.027,-10.067c0.598,-0.461 0.68,-1.332 0.181,-1.898c-0.188,-0.215 -0.375,-0.43 -0.563,-0.644c-0.454,-0.517 -1.23,-0.596 -1.777,-0.178l-12.713,9.677c-1.264,-0.403 -3.911,-1.11 -6.823,-1.11c-3.56,0 -6.716,0.889 -9.415,2.645l0,-3.882c1.28,-0.069 3.116,-0.323 4.974,-1.114c0.299,-0.127 0.496,-0.438 0.504,-0.786l0.074,-3.09c0.008,-0.335 -0.16,-0.644 -0.434,-0.797c-0.717,-0.399 -2.339,-1.094 -5.118,-1.308l0,-0.597c0,-0.561 -0.455,-1.015 -1.016,-1.015l-1.427,0c-0.562,0 -1.016,0.454 -1.016,1.015l0,0.597c-2.779,0.214 -4.4,0.909 -5.118,1.308c-0.273,0.153 -0.442,0.462 -0.434,0.797l0.074,3.09c0.008,0.348 0.206,0.659 0.504,0.786c1.858,0.791 3.694,1.045 4.974,1.114l0,3.882c-2.699,-1.756 -5.854,-2.645 -9.414,-2.645c-2.519,0 -4.839,0.529 -6.239,0.933l-5.619,-4.159c0.259,-0.651 0.402,-1.361 0.402,-2.103c0,-3.15 -2.553,-5.704 -5.703,-5.704c-3.15,0 -5.703,2.554 -5.703,5.704c0,3.15 2.553,5.703 5.703,5.703c1.146,0 2.213,-0.339 3.107,-0.921l6.01,4.449c-0.546,0.202 -0.973,0.551 -1.24,0.818c-0.208,0.207 -0.322,0.484 -0.322,0.779l0,22.586l-4.299,3.182c-0.672,0.019 -1.359,0.177 -1.803,0.484c-3.421,-4.936 -6.159,-11.306 -5.943,-17.393c-2.878,6.438 -0.418,14.1 2.99,19.944l-1.237,0.833c-0.163,0.109 0.121,0.816 0.634,1.58l0.528,0.784c0.513,0.762 1.061,1.292 1.224,1.182l1.416,-0.953c4.569,4.907 11.086,9.391 17.998,8.55c-5.897,-1.703 -10.964,-5.83 -14.709,-10.609c0.345,-0.273 0.484,-0.926 0.701,-1.429l5.903,-4.369c1.72,-0.557 3.808,-1.084 5.562,-1.084c2.783,0 5.412,0.413 7.591,1.105c-0.005,0.01 0.026,0.019 0.086,0.028l2.383,0.765c-0.005,0.043 -0.007,0.087 -0.007,0.131l0,10.92c0,0.743 0.603,1.347 1.347,1.347l0.765,0c0.745,0 1.347,-0.604 1.347,-1.347l0,-10.92c0,-0.044 -0.002,-0.088 -0.007,-0.131l2.384,-0.765c0.06,-0.009 0.09,-0.018 0.086,-0.028c2.179,-0.692 4.808,-1.105 7.589,-1.105c1.439,0 3.1,0.353 4.6,0.788l8.169,6.083c0.116,0.482 0.221,0.993 0.292,1.492c-3.423,3.373 -7.525,4.916 -10.383,5.616l-0.348,0.085l0.035,-0.357c0.049,-0.491 0.108,-0.989 0.163,-1.438c0.049,-0.399 0.102,-0.831 0.127,-1.131c-2.358,1.59 -8.031,5.716 -8.064,5.738l-0.331,0.317c1.486,0.308 7.586,1.013 11.47,1.067c-0.425,-0.345 -1.019,-0.828 -1.526,-1.231l-0.389,-0.31l0.477,-0.134c2.9,-0.819 6.956,-2.441 10.485,-5.598c1.796,-0.392 4.315,-1.481 4.315,-1.481c0,0 0,-2.007 -0.147,-3.733c2.315,-3.98 3.368,-8.819 3.125,-14.394l-0.019,-0.427l0.384,0.187c0.7,0.341 1.939,0.916 2.693,1.264Z" style="fill:#242f60;fill-rule:nonzero;"/><path d="M61.733,94.268c-0.035,0.111 -0.022,0.229 0.035,0.329l0.039,0.07c0.071,0.133 0.213,0.218 0.367,0.218c0.062,0 0.123,-0.013 0.18,-0.042c1.088,-0.515 4.005,-1.715 7.587,-1.715c1.159,0 2.296,0.127 3.381,0.38l0.07,0.011l0.024,0c0.189,0 0.355,-0.126 0.406,-0.313l0.018,-0.076c0.028,-0.11 0.012,-0.226 -0.048,-0.326c-0.059,-0.096 -0.153,-0.165 -0.265,-0.191c-1.169,-0.275 -2.393,-0.413 -3.633,-0.413c-3.786,0 -6.816,1.271 -7.94,1.816c-0.106,0.05 -0.186,0.143 -0.221,0.252Z" style="fill:#242f60;fill-rule:nonzero;"/><path d="M61.807,97.375c0.072,0.134 0.213,0.218 0.367,0.218c0.062,0 0.122,-0.014 0.18,-0.041c1.08,-0.516 3.98,-1.716 7.582,-1.716c1.161,0 2.3,0.127 3.386,0.38l0.07,0.011l0.024,0c0.189,0 0.355,-0.126 0.407,-0.314l0.016,-0.073c0.03,-0.114 0.012,-0.23 -0.046,-0.328c-0.059,-0.096 -0.153,-0.164 -0.265,-0.19c-1.171,-0.276 -2.393,-0.414 -3.634,-0.414c-3.782,0 -6.812,1.269 -7.941,1.816c-0.109,0.056 -0.187,0.148 -0.22,0.257c-0.033,0.109 -0.022,0.227 0.035,0.328l0.039,0.066Z" style="fill:#242f60;fill-rule:nonzero;"/><path d="M73.528,97.857c-1.17,-0.274 -2.394,-0.413 -3.634,-0.413c-3.782,0 -6.811,1.269 -7.942,1.816c-0.107,0.055 -0.186,0.147 -0.218,0.257c-0.035,0.111 -0.023,0.227 0.034,0.328l0.038,0.071c0.074,0.133 0.215,0.218 0.368,0.218c0.063,0 0.123,-0.014 0.181,-0.042c1.087,-0.515 4.004,-1.715 7.586,-1.715c1.158,0 2.296,0.127 3.38,0.38l0.071,0.011l0.024,0c0.19,0 0.356,-0.126 0.406,-0.313l0.018,-0.076c0.029,-0.11 0.012,-0.224 -0.046,-0.323c-0.059,-0.098 -0.153,-0.171 -0.266,-0.199Z" style="fill:#242f60;fill-rule:nonzero;"/><path d="M61.802,102.703c0.074,0.135 0.215,0.217 0.367,0.217c0.062,0 0.122,-0.013 0.181,-0.042c1.084,-0.514 3.994,-1.716 7.587,-1.716c1.16,0 2.299,0.129 3.384,0.382l0.071,0.01l0.024,0c0.189,0 0.356,-0.125 0.406,-0.313l0.017,-0.073c0.029,-0.114 0.013,-0.23 -0.047,-0.328c-0.058,-0.097 -0.153,-0.166 -0.264,-0.192c-1.171,-0.273 -2.397,-0.413 -3.637,-0.413c-3.797,0 -6.817,1.269 -7.943,1.816c-0.107,0.054 -0.185,0.146 -0.22,0.261c-0.032,0.109 -0.021,0.226 0.034,0.323l0.04,0.068Z" style="fill:#242f60;fill-rule:nonzero;"/><path d="M73.524,103.229c-1.171,-0.275 -2.394,-0.413 -3.635,-0.413c-3.784,0 -6.814,1.269 -7.94,1.816c-0.108,0.051 -0.185,0.141 -0.219,0.251c-0.036,0.111 -0.023,0.229 0.033,0.328l0.039,0.072c0.075,0.134 0.215,0.217 0.368,0.217c0.061,0 0.121,-0.014 0.181,-0.041c1.082,-0.515 3.988,-1.717 7.585,-1.717c1.16,0 2.299,0.128 3.386,0.382l0.069,0.011l0.024,0c0.189,0 0.356,-0.126 0.408,-0.314l0.016,-0.075c0.03,-0.11 0.012,-0.226 -0.047,-0.325c-0.059,-0.098 -0.155,-0.167 -0.268,-0.192Z" style="fill:#242f60;fill-rule:nonzero;"/><path d="M73.528,105.878c-1.172,-0.272 -2.394,-0.413 -3.634,-0.413c-3.781,0 -6.811,1.271 -7.942,1.817c-0.107,0.056 -0.186,0.147 -0.218,0.258c-0.034,0.108 -0.024,0.224 0.033,0.326l0.039,0.067c0.074,0.135 0.215,0.219 0.368,0.219c0.063,0 0.123,-0.014 0.181,-0.041c1.087,-0.517 4.004,-1.717 7.587,-1.717c1.158,0 2.295,0.128 3.379,0.381l0.071,0.01l0.024,0c0.19,0 0.356,-0.125 0.406,-0.313l0.018,-0.075c0.029,-0.111 0.012,-0.226 -0.048,-0.326c-0.059,-0.098 -0.153,-0.166 -0.264,-0.193Z" style="fill:#242f60;fill-rule:nonzero;"/><path d="M73.533,108.538c-1.172,-0.273 -2.394,-0.413 -3.635,-0.413c-3.783,0 -6.813,1.27 -7.941,1.817c-0.107,0.053 -0.186,0.145 -0.219,0.256c-0.034,0.11 -0.022,0.228 0.068,0.394c0.073,0.135 0.214,0.219 0.368,0.219c0.063,0 0.123,-0.015 0.181,-0.041c1.086,-0.517 4.003,-1.717 7.586,-1.717c1.158,0 2.295,0.129 3.38,0.381l0.071,0.01l0.024,0c0.19,0 0.356,-0.126 0.405,-0.307l0.018,-0.076c0.03,-0.115 0.013,-0.233 -0.047,-0.33c-0.057,-0.096 -0.151,-0.166 -0.259,-0.193Z" style="fill:#242f60;fill-rule:nonzero;"/><path d="M55.539,102.052c-1.124,-0.546 -4.147,-1.816 -7.943,-1.816c-1.242,0 -2.467,0.139 -3.637,0.413c-0.112,0.025 -0.206,0.094 -0.265,0.19c-0.059,0.097 -0.075,0.216 -0.048,0.326l0.018,0.077c0.051,0.183 0.218,0.313 0.407,0.313l0.07,-0.005l0.024,-0.005c1.085,-0.254 2.223,-0.382 3.384,-0.382c3.593,0 6.504,1.2 7.588,1.715c0.058,0.029 0.118,0.042 0.18,0.042c0.155,0 0.293,-0.084 0.367,-0.219l0.04,-0.064c0.056,-0.101 0.068,-0.217 0.034,-0.327c-0.033,-0.111 -0.114,-0.205 -0.219,-0.258Z" style="fill:#242f60;fill-rule:nonzero;"/><path d="M55.539,104.632c-1.128,-0.546 -4.158,-1.816 -7.941,-1.816c-1.242,0 -2.465,0.138 -3.636,0.413c-0.112,0.025 -0.207,0.093 -0.27,0.194c-0.058,0.099 -0.073,0.215 -0.046,0.321l0.018,0.077c0.051,0.186 0.218,0.314 0.407,0.314l0.07,-0.005l0.024,-0.006c1.085,-0.254 2.224,-0.382 3.385,-0.382c3.595,0 6.504,1.202 7.587,1.718c0.058,0.027 0.118,0.041 0.18,0.041c0.153,0 0.294,-0.085 0.366,-0.219l0.04,-0.07c0.057,-0.1 0.069,-0.217 0.035,-0.33c-0.036,-0.111 -0.115,-0.201 -0.219,-0.25Z" style="fill:#242f60;fill-rule:nonzero;"/><path d="M55.533,107.282c-1.127,-0.546 -4.158,-1.816 -7.941,-1.816c-1.239,0 -2.462,0.139 -3.634,0.413c-0.112,0.026 -0.206,0.095 -0.264,0.193c-0.059,0.099 -0.075,0.215 -0.047,0.324l0.017,0.077c0.05,0.183 0.218,0.313 0.406,0.313l0.071,-0.005l0.024,-0.006c1.084,-0.253 2.221,-0.381 3.38,-0.381c3.583,0 6.5,1.2 7.586,1.716c0.057,0.027 0.118,0.041 0.182,0.041c0.154,0 0.293,-0.083 0.367,-0.218l0.039,-0.066c0.057,-0.101 0.069,-0.217 0.035,-0.325c-0.033,-0.111 -0.112,-0.204 -0.221,-0.26Z" style="fill:#242f60;fill-rule:nonzero;"/><path d="M55.53,109.942c-1.128,-0.546 -4.157,-1.817 -7.941,-1.817c-1.241,0 -2.464,0.14 -3.636,0.413c-0.108,0.027 -0.199,0.095 -0.259,0.193c-0.06,0.1 -0.076,0.218 -0.048,0.327l0.018,0.075c0.051,0.184 0.218,0.311 0.407,0.311l0.071,-0.004l0.023,-0.006c1.083,-0.252 2.221,-0.381 3.381,-0.381c3.582,0 6.5,1.2 7.585,1.716c0.057,0.027 0.118,0.042 0.182,0.042c0.152,0 0.292,-0.083 0.367,-0.218l0.036,-0.067c0.055,-0.099 0.067,-0.214 0.033,-0.327c-0.034,-0.11 -0.114,-0.205 -0.219,-0.257Z" style="fill:#242f60;fill-rule:nonzero;"/><path d="M45,98.589c0.827,-0.142 1.684,-0.213 2.546,-0.213c3.582,0 6.499,1.201 7.587,1.717c0.057,0.027 0.118,0.041 0.179,0.041c0.154,0 0.295,-0.085 0.367,-0.218l0.039,-0.071c0.057,-0.1 0.07,-0.217 0.036,-0.325c-0.033,-0.112 -0.112,-0.206 -0.22,-0.26c-1.096,-0.531 -4.012,-1.756 -7.674,-1.814l0.004,-1.608c3.459,0.068 6.226,1.215 7.267,1.713c0.057,0.028 0.118,0.041 0.181,0.041c0.155,0 0.294,-0.084 0.368,-0.217l0.039,-0.066c0.056,-0.101 0.069,-0.219 0.034,-0.328c-0.035,-0.11 -0.113,-0.204 -0.219,-0.257c-0.596,-0.289 -3.726,-1.712 -7.668,-1.809l0.004,-1.784c3.439,0.07 6.215,1.216 7.261,1.712c0.057,0.029 0.118,0.042 0.181,0.042c0.154,0 0.295,-0.084 0.367,-0.218l0.039,-0.07c0.057,-0.1 0.071,-0.217 0.034,-0.329c-0.035,-0.113 -0.114,-0.202 -0.218,-0.252c-1.127,-0.546 -4.157,-1.816 -7.942,-1.816c-1.24,0 -2.464,0.139 -3.628,0.417l-0.331,0.166l0.008,6.086l1.359,-0.28Z" style="fill:#242f60;fill-rule:nonzero;"/><path d="M70.167,41.714c-0.03,0.004 -0.088,-0.001 -0.119,0.001c0.003,0.004 0.119,-0.001 0.119,-0.001c-1.804,0.377 -4.445,3.84 -4.914,4.474c-0.13,1.017 0.04,1.469 0.562,2.208c0.547,0.77 0.26,1.54 -0.267,2.43c-0.384,0.669 -1.148,2.503 -1.391,3.392c-0.443,0.486 -1.07,0.912 -1.621,1.078c-0.114,-0.063 -0.159,-0.398 -0.159,-0.398c-0.869,-1.279 -2.447,-1.128 -2.447,-1.128c-1.704,0.29 -1.77,0.829 -1.77,0.829c0.366,-0.041 1.476,0.399 1.476,0.399c0.005,0.261 0.451,0.504 0.451,0.504c-1.035,-0.193 -1.91,0.408 -1.91,0.408c-1.581,1.09 -1.023,2.285 -1.023,2.285c0.003,-0.94 1.376,-1.158 1.376,-1.158c0.597,0.548 2.925,-0.402 2.925,-0.402l-2.048,1.679c-0.772,1.027 -0.315,2.057 -0.315,2.057c0.032,-0.758 1.072,-1.018 1.072,-1.018c0.696,-0.074 0.939,-0.426 0.939,-0.426c1.261,-0.27 1.357,-1.568 1.357,-1.568c1.917,-0.799 3.852,-0.373 3.852,-0.373c1.186,0.685 2.014,1.221 2.014,1.221l0.225,-0.348c0.882,-0.19 1.31,0.883 1.31,0.883c0.301,-1.416 -0.815,-1.891 -0.815,-1.891c-0.456,-0.542 -1.308,-0.51 -1.308,-0.51l-1.431,-0.4c-0.011,-0.02 -0.43,-0.154 -0.441,-0.176c-0.127,-0.353 -0.318,-0.767 -0.254,-1.152c0.099,-0.395 0.221,-0.709 0.363,-1.008c0.746,-1 1.875,-2.217 2.252,-3.012c0.4,-0.834 0.676,-2.177 1.753,-2.75c0.436,-0.221 1.001,-0.431 1.488,-0.658l0.002,0.002c0,0 0.019,-0.01 0.047,-0.025c0.258,-0.121 0.492,-0.246 0.666,-0.381c0.876,-0.469 1.44,-0.867 1.44,-0.867c-0.725,-0.67 -2.036,-1.957 -3.456,-4.2Z" style="fill:#242f60;fill-rule:nonzero;"/><path d="M65.83,40.22c1.319,0.326 2.052,1.457 2.183,1.676c0.535,-0.437 1.082,-0.782 1.58,-0.887c0,0 -1.409,-2.365 -3.669,-2.184c-0.037,0 -0.076,0.003 -0.114,0.006c-0.004,0 -0.008,0 -0.012,0l-0.001,0.001c-1.152,0.079 -3.226,1.166 -7.967,4.265c-7.32,4.785 -11.201,2.168 -11.201,2.168c-1.375,3.699 -3.595,4.612 -3.595,4.612c0,0 0.656,0.627 1.893,1.22c0.037,-0.033 0.067,-0.06 0.104,-0.097c0.402,-0.387 0.909,-0.942 1.368,-1.544c0.232,-0.298 0.448,-0.611 0.641,-0.911c0.192,-0.301 0.364,-0.589 0.495,-0.844c0.139,-0.253 0.242,-0.471 0.31,-0.625c0.071,-0.154 0.111,-0.242 0.111,-0.242c0,0 -0.02,0.094 -0.056,0.261c-0.032,0.166 -0.084,0.404 -0.165,0.686c-0.073,0.283 -0.179,0.609 -0.305,0.955c-0.126,0.348 -0.274,0.715 -0.442,1.073c-0.294,0.644 -0.64,1.259 -0.946,1.745c0.739,0.253 1.605,0.459 2.595,0.543c0.03,-0.041 0.057,-0.078 0.088,-0.123c0.319,-0.457 0.714,-1.099 1.048,-1.777c0.171,-0.338 0.324,-0.686 0.457,-1.016c0.13,-0.332 0.244,-0.648 0.325,-0.924c0.087,-0.274 0.147,-0.507 0.184,-0.671c0.04,-0.165 0.063,-0.259 0.063,-0.259c0,0 -0.001,0.096 -0.004,0.266c-0.001,0.168 -0.007,0.412 -0.032,0.704c-0.018,0.292 -0.06,0.633 -0.118,0.999c-0.057,0.364 -0.133,0.752 -0.229,1.135c-0.147,0.61 -0.337,1.205 -0.523,1.706c1.003,-0.022 2.108,-0.173 3.309,-0.507c0.02,-0.058 0.038,-0.109 0.06,-0.171c0.176,-0.53 0.373,-1.256 0.502,-2.001c0.068,-0.372 0.117,-0.749 0.15,-1.104c0.033,-0.355 0.052,-0.69 0.051,-0.977c0.006,-0.288 -0.003,-0.529 -0.013,-0.698c-0.008,-0.169 -0.013,-0.265 -0.013,-0.265c0,0 0.026,0.092 0.071,0.256c0.048,0.164 0.111,0.398 0.169,0.685c0.065,0.285 0.121,0.624 0.169,0.99c0.049,0.366 0.085,0.76 0.102,1.155c0.03,0.605 0.018,1.212 -0.016,1.732c0.792,-0.291 1.619,-0.658 2.482,-1.123c0.341,-0.183 0.67,-0.363 0.995,-0.543c-0.003,-0.49 -0.034,-1.068 -0.105,-1.647c-0.043,-0.376 -0.105,-0.751 -0.178,-1.101c-0.072,-0.349 -0.15,-0.674 -0.235,-0.949c-0.078,-0.278 -0.157,-0.504 -0.216,-0.662c-0.057,-0.161 -0.089,-0.251 -0.089,-0.251c0,0 0.051,0.081 0.142,0.223c0.094,0.143 0.222,0.35 0.361,0.608c0.146,0.254 0.298,0.56 0.45,0.898c0.153,0.335 0.303,0.701 0.434,1.074c0.154,0.43 0.283,0.864 0.39,1.272c1.039,-0.593 1.981,-1.161 2.814,-1.703c-0.066,-0.514 -0.19,-1.178 -0.372,-1.838c-0.095,-0.345 -0.205,-0.686 -0.322,-1.003c-0.117,-0.316 -0.236,-0.61 -0.353,-0.856c-0.111,-0.249 -0.216,-0.451 -0.292,-0.59c-0.076,-0.143 -0.119,-0.223 -0.119,-0.223c0,0 0.061,0.068 0.167,0.188c0.108,0.12 0.259,0.294 0.428,0.513c0.174,0.217 0.362,0.481 0.557,0.772c0.193,0.29 0.39,0.609 0.568,0.939c0.272,0.49 0.512,1 0.7,1.451c0.527,-0.369 0.998,-0.723 1.404,-1.06l0.001,0l0.44,-0.332c0,0 0.077,-0.53 -0.122,-0.985c-0.107,-0.259 -0.225,-0.525 -0.356,-0.791c-0.156,-0.322 -0.329,-0.636 -0.504,-0.925c-0.173,-0.29 -0.345,-0.557 -0.505,-0.774c-0.157,-0.225 -0.298,-0.404 -0.4,-0.526c-0.1,-0.125 -0.158,-0.197 -0.158,-0.197c0,0 0.073,0.057 0.199,0.155c0.129,0.097 0.31,0.238 0.517,0.423c0.212,0.178 0.446,0.404 0.692,0.653c0.244,0.249 0.496,0.525 0.734,0.816c0.038,0.044 0.072,0.09 0.108,0.135c0,0 0.639,0.797 0.634,1.572c0,0 0.889,-1.241 1.986,-2.317c-0.228,-1.558 -1.66,-2.351 -1.484,-2.308Z" style="fill:#242f60;fill-rule:nonzero;"/><path d="M33.822,26.449c2.467,0.398 5.972,-1.143 7.377,-2.738c-0.219,-0.433 -0.906,-0.606 -1.301,-0.545c-1.87,1.396 -5.854,3.179 -8.41,1.238c0,0 -2.408,-1.77 -0.791,-4.633c0,0 0.456,1.459 1.298,1.545c0,0 0.189,-2.409 1.617,-2.864c0,0 -1.989,-0.759 -3.576,0.839c-1.951,1.963 -0.528,6.461 3.786,7.158Z" style="fill:#242f60;fill-rule:nonzero;"/><path d="M48.689,41.173c2.263,-0.367 4.496,0.678 4.496,0.678c0.705,-2.488 -0.297,-3.23 -0.297,-3.23c-2.1,2.113 -4.199,2.552 -4.199,2.552Z" style="fill:#242f60;fill-rule:nonzero;"/><path d="M56.844,38.874c0,0 0.528,-2.252 -1.215,-3.283c0,0 -0.923,1.577 -1.857,2.363c0,0 0.673,0.934 0.418,1.796c0,0 1.469,-1.334 2.654,-0.876Z" style="fill:#242f60;fill-rule:nonzero;"/><path d="M62.892,33.386c0,0 0.753,-2.861 3.423,-2.861c0,0 -1.479,-2.447 -5.08,-2.516c-3.6,-0.071 -3.863,2.842 -3.863,2.842l0,0.084c0.002,-0.039 2.075,-1.19 4.241,0.625c0,0 1.13,0.787 1.279,1.826Z" style="fill:#242f60;fill-rule:nonzero;"/><path d="M41.277,36.107c-0.214,0.189 -0.449,0.426 -0.692,0.683c-0.243,0.256 -0.491,0.541 -0.723,0.837c-0.469,0.586 -0.881,1.209 -1.158,1.687c-0.06,0.104 -0.112,0.195 -0.161,0.284c-0.007,0.027 -0.017,0.053 -0.025,0.079c-0.273,0.91 -0.478,1.819 -0.566,2.67c0.197,-0.234 0.405,-0.472 0.624,-0.702c0.268,-0.284 0.549,-0.554 0.82,-0.796c0.272,-0.241 0.53,-0.459 0.764,-0.631c0.228,-0.176 0.426,-0.312 0.566,-0.404c0.139,-0.094 0.218,-0.146 0.218,-0.146c0,0 -0.066,0.069 -0.18,0.191c-0.116,0.119 -0.276,0.295 -0.456,0.516c-0.185,0.213 -0.384,0.478 -0.588,0.764c-0.204,0.286 -0.409,0.601 -0.597,0.922c-0.382,0.642 -0.702,1.31 -0.909,1.819c-0.083,0.197 -0.143,0.36 -0.193,0.497c0.13,0.597 0.376,1.12 0.769,1.533c-0.011,-0.027 0.128,-0.283 0.352,-0.66c0.473,-0.842 0.998,-1.636 1.549,-2.434l-0.002,-0.002c0.851,-1.271 2,-2.646 2.377,-2.836c0,0 -0.821,-2.594 -0.032,-5.227c0.351,-1.687 1.877,-4.413 2.038,-6.26c-0.505,0.627 -0.894,1.068 -2.038,1.222l-0.215,0.613l0,-0.002l-0.868,1.668c0.439,-0.19 0.875,-0.34 1.217,-0.434c0.203,-0.058 0.373,-0.095 0.494,-0.12c0.118,-0.026 0.185,-0.041 0.185,-0.041c0,0 -0.059,0.035 -0.165,0.096c-0.106,0.058 -0.254,0.145 -0.425,0.261c-0.345,0.225 -0.779,0.554 -1.175,0.919c-0.397,0.363 -0.757,0.756 -1.005,1.063c-0.039,0.048 -0.07,0.089 -0.105,0.132c-0.129,0.245 -0.266,0.508 -0.418,0.813c-0.238,0.477 -0.49,1.008 -0.747,1.583c-0.118,0.265 -0.235,0.537 -0.35,0.816c0.28,-0.225 0.568,-0.436 0.846,-0.621c0.304,-0.204 0.592,-0.387 0.848,-0.526c0.252,-0.144 0.467,-0.254 0.62,-0.326c0.15,-0.072 0.237,-0.115 0.237,-0.115c0,0 -0.075,0.06 -0.205,0.166c-0.132,0.103 -0.317,0.255 -0.526,0.449Z" style="fill:#242f60;fill-rule:nonzero;"/><path d="M72.834,25.806c-0.032,-1.429 0.308,-3.072 1.451,-3.849c2.521,-1.717 9.365,-1.364 9.365,-1.364c-1.425,-0.568 -15.479,-2.865 -22.735,4.006c0,0 6.643,-3.474 11.438,0.735c0.178,0.113 0.333,0.363 0.481,0.472Z" style="fill:#242f60;fill-rule:nonzero;"/><path d="M71.41,25.806c0,0 -1.75,-1.093 -3.737,-1.455c-2.494,-0.455 -6.948,0.354 -8.706,3.225c4.479,-1.26 6.73,0.572 8.032,1.889c0.317,-3.215 3.736,-3.514 4.411,-3.659Z" style="fill:#242f60;fill-rule:nonzero;"/><path d="M57.605,36.527c1.169,-2.683 4.454,-2.545 4.454,-2.545c0.01,-0.498 -0.922,-2.026 -2.95,-2.494c-2.24,-0.517 -3.234,3.049 -3.234,3.049c1.554,0.264 1.73,1.99 1.73,1.99Z" style="fill:#242f60;fill-rule:nonzero;"/><path d="M43.584,40.674c-0.461,0.134 -0.838,0.755 -0.838,0.755c-1.271,1.683 -2.086,2.992 -3.312,5.133c-1.529,2.468 -3.013,6.039 -4.971,7.91c-0.174,0.162 -0.248,0.264 -0.524,0.362c-0.277,0.099 -0.609,-0.395 -0.609,-0.395c-0.868,-1.278 -2.447,-1.129 -2.447,-1.129c-1.704,0.291 -1.77,0.83 -1.77,0.83c0.366,-0.041 1.477,0.397 1.477,0.397c0.004,0.262 0.451,0.506 0.451,0.506c-1.035,-0.192 -1.91,0.408 -1.91,0.408c-1.582,1.09 -1.024,2.285 -1.024,2.285c0.003,-0.94 1.376,-1.158 1.376,-1.158c0.598,0.548 2.925,-0.402 2.925,-0.402l-2.048,1.679c-0.771,1.027 -0.314,2.057 -0.314,2.057c0.031,-0.758 1.07,-1.018 1.07,-1.018c0.697,-0.074 0.94,-0.427 0.94,-0.427c1.261,-0.268 1.358,-1.567 1.358,-1.567c1.915,-0.8 3.852,-0.374 3.852,-0.374c1.186,0.685 2.013,1.222 2.013,1.222l0.225,-0.35c0.883,-0.188 1.311,0.885 1.311,0.885c0.301,-1.416 -0.815,-1.891 -0.815,-1.891c-0.457,-0.541 -1.308,-0.51 -1.308,-0.51l-1.304,-0.365c-0.104,-0.162 -0.2,-0.341 -0.277,-0.558c-0.159,-1.159 0.68,-2.25 1.24,-3.125c1.719,-1.872 4.388,-2.623 5.633,-3.983c1.107,-1.243 2.221,-3.192 2.038,-5.696c-0.075,-1.081 -1.995,-1.587 -2.438,-1.481Z" style="fill:#242f60;fill-rule:nonzero;"/><path d="M29.614,33.331c0.799,1.916 0.373,3.851 0.373,3.851c-0.685,1.187 -1.221,2.015 -1.221,2.015l0.349,0.224c0.188,0.883 -0.884,1.311 -0.884,1.311c1.417,0.301 1.892,-0.815 1.892,-0.815c0.54,-0.456 0.508,-1.308 0.508,-1.308l0.365,-1.305c0.163,-0.103 0.341,-0.199 0.559,-0.276c0.703,-0.369 1.295,0.055 1.74,0.448c0.164,0.154 0.328,0.309 0.487,0.48c0.957,0.868 1.361,2.192 2.052,3.233l-0.003,0.006l1.005,1.603c0.052,-0.978 0.281,-2.05 0.603,-3.121c0.172,-0.572 0.37,-1.139 0.582,-1.696l-0.832,0c-0.042,-0.006 -0.086,-0.006 -0.135,0c-1.163,-0.299 -2.071,-1.372 -3.164,-2.291c-0.339,-0.315 -1.155,-0.918 -1.817,-1.396c-0.193,-0.139 -0.295,-0.162 -0.394,-0.439c-0.098,-0.277 0.396,-0.608 0.396,-0.608c1.278,-0.868 1.128,-2.447 1.128,-2.447c-0.29,-1.705 -0.83,-1.77 -0.83,-1.77c0.041,0.366 -0.397,1.477 -0.397,1.477c-0.263,0.004 -0.504,0.451 -0.504,0.451c0.191,-1.036 -0.409,-1.911 -0.409,-1.911c-1.09,-1.581 -2.285,-1.023 -2.285,-1.023c0.939,0.003 1.159,1.376 1.159,1.376c-0.548,0.599 0.4,2.925 0.4,2.925l-1.677,-2.048c-1.03,-0.772 -2.058,-0.314 -2.058,-0.314c0.757,0.031 1.017,1.072 1.017,1.072c0.075,0.695 0.427,0.937 0.427,0.937c0.27,1.262 1.568,1.359 1.568,1.359Z" style="fill:#242f60;fill-rule:nonzero;"/><path d="M52.5,37.67l0.002,0c1.795,-1.502 3.291,-5.147 3.723,-6.582c5.149,-17.137 28.36,-10.973 28.36,-10.973c-7.146,-2.768 -14.348,-1.843 -14.348,-1.843c0,0 -10.713,0.532 -14.654,9.38c-2.361,5.299 -3.555,7.127 -4.056,7.707c-0.001,0 -0.001,-0.002 -0.002,-0.002c-2.748,2.902 -5.274,2.623 -5.274,2.623c2.648,-0.756 3.977,-2.68 4.322,-3.252c0,0 0.344,-0.549 0.363,-0.746c-0.231,0.035 -0.844,0.213 -1.118,0.217c-0.824,0.031 -1.561,-0.664 -1.726,-1.623c-0.608,0.657 -1.044,1.406 -1.044,1.406c0.083,-0.916 0.75,-1.882 1.238,-2.477c0.116,-0.169 0.262,-0.328 0.414,-0.47c0.066,-0.069 0.107,-0.112 0.107,-0.112l0.005,0.01c0.334,-0.295 0.652,-0.492 0.652,-0.492c0,0 -1.239,-0.728 -1.298,-2.035c-0.692,0.631 -1.218,1.408 -1.218,1.408c0.16,-1 1.027,-2.012 1.554,-2.547c0.441,-0.582 1.156,-0.767 1.156,-0.767c0,0 -1.321,-0.266 -1.107,-2.537c-0.521,0.545 -0.887,1.086 -0.887,1.086c0.13,-0.819 0.737,-1.645 1.241,-2.211c0.416,-0.685 1.042,-0.924 1.042,-0.924c-0.13,-0.092 -0.247,-0.192 -0.358,-0.298c-0.134,-0.114 -0.296,-0.255 -0.474,-0.423c-0.247,-0.238 -0.524,-0.529 -0.785,-0.871c-0.255,-0.348 -0.508,-0.744 -0.636,-1.197c-0.069,-0.223 -0.1,-0.462 -0.085,-0.694c0.006,-0.233 0.08,-0.455 0.171,-0.652c0.1,-0.193 0.222,-0.367 0.362,-0.504c0.132,-0.146 0.283,-0.256 0.418,-0.357c0.278,-0.194 0.529,-0.323 0.708,-0.403c0.179,-0.08 0.28,-0.126 0.28,-0.126c0,0 -0.098,0.052 -0.272,0.144c-0.171,0.092 -0.274,0.152 -0.534,0.358c-0.126,0.109 -0.265,0.224 -0.382,0.371c-0.127,0.139 -0.229,0.31 -0.31,0.493c-0.072,0.186 -0.125,0.389 -0.117,0.597c0.001,0.208 0.041,0.419 0.117,0.618c0.204,0.541 0.395,0.955 0.762,1.326c-0.147,-0.449 -0.163,-0.816 -0.109,-1.328c0.141,-1.613 2.51,-2.63 2.51,-2.63c0,0 -0.272,-0.331 -0.864,-0.397c0,0 -1.66,-0.431 -5.135,1.85c-1.745,-0.995 -4.351,-0.521 -6.054,1.148c0,0 -2.246,-1.061 -5.093,1.604l2.841,0.826c0.84,0.422 0.982,0.558 0.974,1.598c1.283,-0.81 2.392,-0.663 3.349,-0.204c0.566,0.28 1.77,1.092 1.372,2.692c-0.13,0.23 -0.27,0.448 -0.448,0.63c-1.132,1.213 -2.881,1.288 -4.281,1.432c-0.469,0.071 -0.932,0.955 -1.136,1.429l0.397,-0.094c2.167,-0.632 3.856,0.663 6.001,-0.231c1.709,-1.012 2.252,-2.213 2.233,-4.289c-0.246,-3.076 -1.372,-3.85 -1.811,-3.991c-0.89,-0.221 -1.449,0.714 -1.945,0.41c-0.595,-0.367 -0.366,-1.298 -0.366,-1.298c0.59,-0.235 1.765,0.133 2.241,0.314c0.633,0.326 2.263,1.125 2.55,4.675c0.133,1.088 0.097,1.886 0.087,3.206c-0.341,3.856 -1.951,4.987 -2.286,9.127c0.065,2.369 0.276,2.764 0.767,3.157c0.909,0.728 3.81,0.523 5.16,-0.192c1.025,-0.541 1.938,-1.268 2.734,-2.07Z" style="fill:#242f60;fill-rule:nonzero;"/><path d="M46.907,44.511c0.002,-0.004 0.005,-0.009 0.009,-0.021c-0.004,0.01 -0.007,0.015 -0.009,0.021Z" style="fill:#242f60;fill-rule:nonzero;"/><path d="M46.907,44.511c-0.004,0.012 -0.004,0.01 0,0Z" style="fill:#242f60;fill-rule:nonzero;"/><path d="M46.916,44.49c0.007,-0.016 0.014,-0.033 0.018,-0.043c-0.007,0.016 -0.013,0.032 -0.018,0.043Z" style="fill:#242f60;fill-rule:nonzero;"/><path d="M90.932,52.659c-0.653,-0.183 -1.301,0.333 -1.301,0.333l-1.34,0.49c-0.076,0.072 -1.037,-0.09 -1.127,-0.023c-0.241,-0.584 -0.505,-1.418 -0.874,-2.994l-0.003,-0.013c-0.053,-0.226 -0.107,-0.464 -0.164,-0.72l-0.007,0l-0.307,-1.305l-0.288,-2.393c0,0 -0.018,-0.063 -0.048,-0.165c-0.409,-1.899 -1.143,-2.816 -1.2,-2.908l-0.001,0.003c-2.096,-3.367 -6.489,-4.847 -6.539,-4.857c0.196,0.039 4.028,0.663 6.419,3.463c1.1,-0.241 2.156,-0.637 3.218,-1.231c4.538,-2.54 7.182,-9.281 3.488,-13.893c-3.647,-4.554 -10.962,-2.474 -11.762,1.649c-0.65,3.356 1.886,5.131 1.886,5.131c-0.608,-2.154 2.163,-4.507 2.163,-4.507c-0.788,-0.958 -2.929,-0.233 -2.929,-0.233c2.164,-4.508 6.264,-3.106 6.264,-3.106c6.229,2.392 4.853,10.179 -0.847,12.299c-1.862,0.694 -3.758,0.434 -5.439,-0.216c-2.455,-1.235 -1.289,-4.95 -1.289,-4.95c0,0 -1.191,1.421 -2.68,1.321c-0.002,0 -0.003,-0.002 -0.005,-0.002c0.134,0.849 0.598,1.758 0.598,1.758c-0.839,-0.663 -1.24,-2.397 -1.24,-2.397l0.002,0c-0.39,-0.955 -0.345,-2.591 -0.496,-2.088c-0.217,0.717 -0.796,1.906 -2.556,2.05c-0.016,0.002 -0.032,-0.004 -0.047,-0.003c0.318,0.648 0.755,1.199 0.755,1.199c-0.615,-0.313 -1.137,-1.096 -1.432,-1.613c-0.554,-0.774 -0.749,-2.344 -0.749,-2.344c-1.258,2.334 -4.864,2.836 -6.246,2.916c-2.1,-0.252 -1.544,2.537 -1.544,2.537c-0.76,-0.4 -0.933,-0.946 -1.909,-0.958c-0.446,-0.024 -1.335,0.227 -1.726,0.531c-1.103,0.666 -1.955,1.773 -2.058,4.685c-1.051,-0.85 -2.121,-0.355 -3.184,0.428c0,0 -0.267,1.508 -1.094,2.252c-1.325,-0.723 -2.81,-0.999 -3.145,-1.009l0.005,-0.001c0,0 -1.2,-0.147 -2.998,0.076c0,0 0.259,1.42 -0.219,2.588c2.701,1.803 6.981,-0.094 9.354,-1.43c2.704,-1.49 5.245,-3.638 8.086,-4.731c1.425,-0.642 2.938,-0.382 4.146,0.457c1.732,1.202 3.699,4.556 5.769,6.565c0.116,0.114 1.363,1.794 5.671,2.004c0,0 2.259,-0.045 3.945,2.632c0.077,0.128 0.157,0.265 0.239,0.409c0.059,0.109 0.121,0.213 0.179,0.33c0.398,0.751 0.813,1.7 1.137,2.895c-0.047,0.33 -0.107,0.69 -0.202,1.002c-0.05,0.176 -0.118,0.318 -0.192,0.447c-0.001,0 -0.004,-0.002 -0.005,-0.002c-0.047,0.291 -0.419,-0.137 -0.419,-0.137c-1.38,-0.549 -2.533,0.479 -2.533,0.479c-1.175,1.214 -0.931,1.693 -0.931,1.693c0.264,-0.242 1.372,-0.519 1.372,-0.519c0.147,0.213 0.63,0.154 0.63,0.154c-0.915,0.437 -1.271,1.43 -1.271,1.43c-0.641,1.8 0.449,2.459 0.449,2.459c-0.511,-0.772 0.443,-1.738 0.443,-1.738c0.768,0.106 2.07,-2.004 2.07,-2.004l-0.685,2.548c-0.04,1.286 0.88,1.866 0.88,1.866c-0.39,-0.639 0.281,-1.448 0.281,-1.448c0.504,-0.459 0.501,-0.887 0.501,-0.887c0.84,-0.945 0.206,-2.064 0.206,-2.064c-0.117,-1.549 2.809,-2.513 2.809,-2.513c1.303,-0.119 2.229,-0.568 2.229,-0.568c0.588,-0.661 1.509,-0.026 1.509,-0.026c-0.539,-1.334 -1.672,-1.083 -1.672,-1.083Z" style="fill:#242f60;fill-rule:nonzero;"/><path d="M103.609,66.916l-0.124,0.043c-1.424,0.944 -11.558,6.754 -37.334,-0.791c-31.403,-9.196 -50.552,6.614 -50.552,6.614l0.248,0.059c2.815,-1.47 22.037,-10.779 50.972,-2.318c27.975,8.19 36.79,-3.607 36.79,-3.607Z" style="fill:#242f60;fill-rule:nonzero;"/><path d="M59.592,158c0,0 50.059,-12.789 56.202,-53.002l-0.229,0.268c-4.496,29.299 -55.973,45.311 -55.973,45.311l0.023,0c0,0 -51.477,-16.012 -55.974,-45.311l-0.229,-0.268c6.145,40.213 56.203,53.002 56.203,53.002" style="fill:#242f60;fill-rule:nonzero;"/><path d="M59.579,8.544c18.995,0 50.344,8.002 53.214,13.313c1.409,2.189 2.561,13.568 2.79,15.574l0.236,0.352c0,0 0.542,-11.565 0.346,-15.07c-0.404,-7.252 -25.961,-20.165 -56.586,-20.165l0.048,0c-30.625,0 -56.181,12.913 -56.585,20.165c-0.195,3.505 0.346,15.07 0.346,15.07l0.236,-0.352c0.229,-2.006 1.381,-13.385 2.789,-15.574c2.871,-5.311 34.219,-13.313 53.214,-13.313" style="fill:#242f60;fill-rule:nonzero;"/></svg>